# File created by Blade
# Date/Time:  Wed Jan 21 16:20:09 2015
#---------------------------------------------------------
:version 1.10
:name HOM
:units
  mass 1.0
  length 1.000000
  angle deg
:documentation
     Acclaim Skeleton File
:root
   axis xyz
   order TX TY TZ RX RY RZ
   position 0.000000 0.000000 0.000000
   orientation 0 0 0
:bonedata
   begin
      id 1
      name Spine_dum
      direction 0.000000 1.000000 0.000000
      length 7.067664
      axis 0.0 0.0 0.0 xyz
   end
   begin
      id 2
      name LeftUpLeg_dum
      direction 1.000000 0.000000 0.000000
      length 4.013002
      axis 0.0 0.0 0.0 xyz
   end
   begin
      id 3
      name RightUpLeg_dum
      direction -1.000000 0.000000 0.000000
      length 4.013002
      axis 0.0 0.0 0.0 xyz
   end
   begin
      id 4
      name Spine
      direction 0.000000 1.000000 0.000000
      length 0.000000
      axis 0.0 0.0 0.0 xyz
      dof rx ry rz
   end
   begin
      id 5
      name Spine_dum1
      direction 0.000000 1.000000 0.000000
      length 15.039886
      axis 0.0 0.0 0.0 xyz
   end
   begin
      id 6
      name Spine_dum2
      direction 0.000000 1.000000 0.000000
      length 10.530368
      axis 0.0 0.0 0.0 xyz
   end
   begin
      id 7
      name Spine_dum3
      direction 0.000000 1.000000 0.000000
      length 10.530368
      axis 0.0 0.0 0.0 xyz
   end
   begin
      id 8
      name Head
      direction 0.000000 1.000000 0.000000
      length 4.527550
      axis 0.0 0.0 0.0 xyz
      dof rx ry rz
   end
   begin
      id 9
      name LeftShoulder
      direction 1.000000 0.000000 0.000000
      length 7.028855
      axis 0.0 0.0 -90.0 xyz
      dof rx ry rz
   end
   begin
      id 10
      name LeftArm
      direction 1.000000 0.000000 0.000000
      length 10.797705
      axis 0.0 0.0 -90.0 xyz
      dof rx ry rz
   end
   begin
      id 11
      name LeftForeArm
      direction 1.000000 0.000000 0.000000
      length 7.907442
      axis 0.0 0.0 -90.0 xyz
      dof ry rz rx
   end
   begin
      id 12
      name LeftHand
      direction 0.000000 0.000000 0.000000
      length 0.000000
      axis 0.0 0.0 -90.0 xyz
      dof rx ry rz
   end
   begin
      id 13
      name LeftHand_dum1
      direction 0.000000 0.000000 0.000000
      length 0.000000
      axis 0.0 0.0 -90.0 xyz
   end
   begin
      id 14
      name LeftHand_dum2
      direction 1.000000 0.000000 0.000000
      length 3.937000
      axis 0.0 0.0 -90.0 xyz
   end
   begin
      id 15
      name LeftHandThumb1
      direction 0.000000 0.000000 1.000000
      length 3.937000
      axis 0.0 0.0 -90.0 xyz
      dof rx rz ry
   end
   begin
      id 16
      name RightShoulder
      direction -1.000000 0.000000 0.000000
      length 7.028855
      axis 0.0 0.0 90.0 xyz
      dof rx ry rz
   end
   begin
      id 17
      name RightArm
      direction -1.000000 0.000000 0.000000
      length 10.797705
      axis 0.0 0.0 90.0 xyz
      dof rx ry rz
   end
   begin
      id 18
      name RightForeArm
      direction -1.000000 0.000000 0.000000
      length 7.907442
      axis 0.0 0.0 90.0 xyz
      dof ry rz rx
   end
   begin
      id 19
      name RightHand
      direction 0.000000 0.000000 0.000000
      length 0.000000
      axis 0.0 0.0 90.0 xyz
      dof rx ry rz
   end
   begin
      id 20
      name RightHand_dum1
      direction 0.000000 0.000000 0.000000
      length 0.000000
      axis 0.0 0.0 90.0 xyz
   end
   begin
      id 21
      name RightHand_dum2
      direction -1.000000 0.000000 0.000000
      length 3.937000
      axis 0.0 0.0 90.0 xyz
   end
   begin
      id 22
      name RightHandThumb1
      direction 0.000000 0.000000 1.000000
      length 3.937000
      axis 0.0 0.0 90.0 xyz
      dof rx rz ry
   end
   begin
      id 23
      name LeftUpLeg
      direction 0.000000 -1.000000 0.000000
      length 16.899758
      axis 0.0 0.0 0.0 xyz
      dof rx ry rz
   end
   begin
      id 24
      name LeftLeg
      direction 0.000000 -1.000000 0.000000
      length 17.389183
      axis 0.0 0.0 0.0 xyz
      dof rx ry rz
   end
   begin
      id 25
      name LeftFoot
      direction 0.000000 -0.258819 0.965926
      length 4.924528
      axis 15.0 0.0 0.0 xyz
      dof rx ry rz
   end
   begin
      id 26
      name LeftToeBase
      direction 0.000000 0.000000 1.000000
      length 2.952750
      axis 0.0 0.0 0.0 xyz
      dof rx ry rz
   end
   begin
      id 27
      name RightUpLeg
      direction 0.000000 -1.000000 0.000000
      length 16.899758
      axis 0.0 0.0 0.0 xyz
      dof rx ry rz
   end
   begin
      id 28
      name RightLeg
      direction 0.000000 -1.000000 0.000000
      length 17.389183
      axis 0.0 0.0 0.0 xyz
      dof rx ry rz
   end
   begin
      id 29
      name RightFoot
      direction 0.000000 -0.258819 0.965926
      length 4.924528
      axis 15.0 0.0 0.0 xyz
      dof rx ry rz
   end
   begin
      id 30
      name RightToeBase
      direction 0.000000 0.000000 1.000000
      length 2.952750
      axis 0.0 0.0 0.0 xyz
      dof rx ry rz
   end
:hierarchy
   begin
      root Spine_dum LeftUpLeg_dum RightUpLeg_dum
      Spine_dum Spine
      LeftUpLeg_dum LeftUpLeg
      RightUpLeg_dum RightUpLeg
      Spine Spine_dum1 Spine_dum2 Spine_dum3
      Spine_dum1 Head
      Spine_dum2 LeftShoulder
      Spine_dum3 RightShoulder
      LeftShoulder LeftArm
      LeftArm LeftForeArm
      LeftForeArm LeftHand
      LeftHand LeftHand_dum1 LeftHand_dum2
      LeftHand_dum1 LeftHandThumb1
      RightShoulder RightArm
      RightArm RightForeArm
      RightForeArm RightHand
      RightHand RightHand_dum1 RightHand_dum2
      RightHand_dum1 RightHandThumb1
      LeftUpLeg LeftLeg
      LeftLeg LeftFoot
      LeftFoot LeftToeBase
      RightUpLeg RightLeg
      RightLeg RightFoot
      RightFoot RightToeBase
   end

# File created by Blade
# Date/Time:  Wed Jan 21 16:20:01 2015
# Frame Rate: 120.000 fps
#------------------------------------------------------
:FULLY-SPECIFIED
:DEGREES
70
root 16.425837 35.830979 -19.646233 -181.718945 0.764501 -179.066523
Spine -1.630168 0.241084 2.879826
Head 24.112332 -0.679212 -0.665506
LeftShoulder -8.515717 -26.561227 1.790396
LeftArm 5.394547 8.679107 -27.141787
LeftForeArm 6.307780 -0.000000 -1.392890
LeftHand -10.588397 0.000000 -1.139758
LeftHandThumb1 -26.253704 0.000000 33.147579
RightShoulder -7.649731 -9.594845 -1.296884
RightArm 25.178365 24.573468 35.126643
RightForeArm -35.238448 -0.000000 9.987537
RightHand -7.699531 -0.000000 -3.007867
RightHandThumb1 -24.326973 -0.000000 -32.862282
LeftUpLeg 6.916729 3.073054 -2.220712
LeftLeg -10.901917 -0.000000 0.000000
LeftFoot 2.702264 26.551869 6.711835
LeftToeBase -154.251660 -0.000000 0.000000
RightUpLeg -8.131109 -0.165458 -3.969161
RightLeg 22.848949 -0.000000 -0.000000
RightFoot -22.623058 -34.434646 22.515844
RightToeBase 14.314869 -0.000000 -0.000000
71
root 16.358012 35.830452 -19.593361 -181.740882 0.752525 -179.133080
Spine -1.359957 0.199753 2.796269
Head 24.067794 -0.763787 -0.631101
LeftShoulder -8.520214 -26.362084 1.539010
LeftArm 5.013595 8.411741 -28.069529
LeftForeArm 6.191551 0.000000 -1.443692
LeftHand -10.444664 -0.000000 -1.057981
LeftHandThumb1 -26.253704 0.000000 33.147579
RightShoulder -7.790497 -9.681412 -0.948655
RightArm 25.270840 24.475870 36.179350
RightForeArm -35.339400 -0.000000 10.241558
RightHand -7.821316 -0.000000 -3.120904
RightHandThumb1 -24.326973 -0.000000 -32.862282
LeftUpLeg 6.849029 3.102766 -2.394421
LeftLeg -10.901903 -0.000000 0.000000
LeftFoot 2.725153 26.460557 6.686759
LeftToeBase -154.440914 -0.000000 0.000000
RightUpLeg -8.574173 0.103189 -3.933825
RightLeg 23.490999 -0.000000 -0.000000
RightFoot -22.931034 -35.554629 22.485177
RightToeBase 13.440059 -0.000000 -0.000000
72
root 16.301131 35.829359 -19.543943 -181.788576 0.750142 -179.178242
Spine -1.061583 0.139768 2.690563
Head 24.017161 -0.824534 -0.537192
LeftShoulder -8.582842 -26.190339 1.367998
LeftArm 4.660530 8.091847 -29.014520
LeftForeArm 6.194304 -0.000000 -1.543176
LeftHand -10.382722 -0.000000 -1.089978
LeftHandThumb1 -26.253704 0.000000 33.147579
RightShoulder -7.854050 -9.753055 -0.573088
RightArm 25.230087 24.385762 37.184819
RightForeArm -35.450227 -0.000000 10.567490
RightHand -7.805478 -0.000000 -3.028518
RightHandThumb1 -24.326973 -0.000000 -32.862282
LeftUpLeg 6.837087 3.108196 -2.528607
LeftLeg -10.950305 -0.000000 0.000000
LeftFoot 2.747613 26.505694 6.645150
LeftToeBase -154.741488 -0.000000 0.000000
RightUpLeg -8.951199 0.287854 -3.852443
RightLeg 24.074377 -0.000000 -0.000000
RightFoot -23.327453 -36.572303 22.625178
RightToeBase 12.246576 -0.000000 -0.000000
73
root 16.245529 35.828046 -19.499433 -181.834108 0.736544 -179.239739
Spine -0.787371 0.087935 2.560327
Head 23.981443 -0.876053 -0.432815
LeftShoulder -8.613284 -26.018290 1.210314
LeftArm 4.251651 7.721963 -29.972572
LeftForeArm 6.114011 -0.000000 -1.625129
LeftHand -10.344429 -0.000000 -1.185144
LeftHandThumb1 -26.253704 0.000000 33.147579
RightShoulder -7.862818 -9.791138 -0.235757
RightArm 25.015484 24.286830 38.204468
RightForeArm -35.598055 0.000000 10.986178
RightHand -7.982271 -0.000000 -2.908409
RightHandThumb1 -24.326973 -0.000000 -32.862282
LeftUpLeg 6.811191 3.073510 -2.671865
LeftLeg -10.956448 -0.000000 0.000000
LeftFoot 2.782591 26.491249 6.574476
LeftToeBase -154.897261 -0.000000 0.000000
RightUpLeg -9.291783 0.394930 -3.769765
RightLeg 24.609186 -0.000000 -0.000000
RightFoot -23.838823 -37.382150 22.782640
RightToeBase 11.172251 -0.000000 -0.000000
